# xmcd CD database file
#
# Track frame offsets:
#	150
#	22708
#	44086
#	63038
#	95965
#	120520
#	143816
#	165983
#	192692
#	209231
#	240133
#	262242
#
# Disc length: 3761 seconds
#
# Revision: 1
# Processed by: cddbd v1.5.2PL0 Copyright (c) Steve Scherf et al.
# Submitted via: CDex 1.70beta2
#
DISCID=ad0eaf0c
DTITLE=Various Artist - Salsa Del Ayer Vol.II
DYEAR=2001
DGENRE=Salsa
TTITLE0=Tito Rojas - Ni Fio, Ni Doy, Ni Presto
TTITLE1=Gilberto Santa Rosa - Tu Musica Popular
TTITLE2=Luisito Carrion - Fuga
TTITLE3=Cano Estremera - El Toro
TTITLE4=Tito Nieves - La Chaka
TTITLE5=Victor Manuelle - Me Vuelves Loco
TTITLE6=Andy Montañez - Ciudad, Ciudad
TTITLE7=Tito Allen - Como Tu
TTITLE8=Pedro Conga - Tu Me Haces Falta
TTITLE9=Luis "Perico" Ortiz - Llego La Hora
TTITLE10=Primi Cruz - Bambarakatunga
TTITLE11=Hermanos Moreno - No Me Vuelvo A Enamorar
EXTD=YEAR: 2001
EXTT0=
EXTT1=
EXTT2=
EXTT3=
EXTT4=
EXTT5=
EXTT6=
EXTT7=
EXTT8=
EXTT9=
EXTT10=
EXTT11=
PLAYORDER=
